<?xml version="1.0" encoding="UTF-8"?>
<svg version="1.1" viewBox="0 0 32 32" xmlns="http://www.w3.org/2000/svg">
 <path d="m2 6c-1.108 0-2 0.892-2 2v16c0 1.108 0.892 2 2 2h22c1.108 0 2-0.892 2-2v-3.5723l4.1621 1.7852a1.3188 1.3188 0 0 0 1.8379-1.2129v-10a1.1606 1.1606 0 0 0-1.7363-1.0078l-4.2637 2.4355v-4.4277c0-1.108-0.892-2-2-2z" fill="#14814f"/>
 <path d="m6.314 20.07 2.1617-2.1673c0.43078-0.42999 1.1439-0.41656 1.5898 0.02969l1.089 1.0923c1.0798-0.64228 2.128-1.3217 2.8351-2.0201 0.83317-0.84574 1.4748-1.8667 2.0161-2.8409-0.36382-0.36386-0.72726-0.72809-1.0907-1.0923-0.44589-0.44679-0.45822-1.1618-0.0286-1.5929l2.1617-2.1673c0.43022-0.43055 1.1433-0.41768 1.5898 0.03021 0.77937 0.69816 1.1816 1.4593 1.3181 2.4187 0.28513 2.3722-0.79658 4.5396-3.7314 7.4823-4.0574 4.0659-7.3272 3.7585-7.4683 3.7434-1.2389-0.12068-1.8322-0.7514-2.4138-1.3225-0.44535-0.44735-0.45767-1.1612-0.0286-1.5934z" fill="#fff"/>
</svg>
